<svg width="783" height="558" viewBox="0 0 783 558" fill="none" xmlns="http://www.w3.org/2000/svg">
<g clip-path="url(#clip0_222_348)">
<path d="M696.585 467.281L156.888 451.816C144.754 451.479 133.158 446.729 124.274 438.455C115.39 430.182 109.827 418.953 108.627 406.873L82.5762 149.463C81.8826 142.573 82.6276 135.614 84.7639 129.027C86.9002 122.44 90.3813 116.368 94.9866 111.196C99.592 106.025 105.221 101.866 111.517 98.9839C117.814 96.1017 124.64 94.5587 131.564 94.4526L732.288 86.1491C739.431 86.0525 746.513 87.4869 753.056 90.3559C759.599 93.2248 765.452 97.4617 770.22 102.782C774.989 108.102 778.564 114.381 780.703 121.198C782.843 128.015 783.498 135.211 782.625 142.302L747.648 423.48C746.127 435.832 740.048 447.171 730.602 455.274C721.156 463.377 709.024 467.659 696.585 467.281Z" fill="#EAF9F3" fill-opacity="0.2"/>
<path d="M766.763 261.458H618.848C610.25 261.458 603.279 268.428 603.279 277.027V464.873" stroke="#041E2A" stroke-width="1.8" stroke-linecap="round" stroke-linejoin="round"/>
<path d="M48.949 520.735H483.923C488.052 520.735 492.012 519.095 494.932 516.175C497.851 513.255 499.492 509.295 499.492 505.166V147.803C499.492 143.674 497.851 139.714 494.932 136.794C492.012 133.874 488.052 132.234 483.923 132.234H48.949C44.82 132.234 40.8602 133.874 37.9406 136.794C35.021 139.714 33.3808 143.674 33.3808 147.803V505.166C33.3808 509.295 35.021 513.255 37.9406 516.175C40.8602 519.095 44.82 520.735 48.949 520.735Z" stroke="#041E2A" stroke-width="1.8" stroke-linecap="round" stroke-linejoin="round"/>
<path d="M642.304 261.354H663.372C664.47 261.356 665.531 260.957 666.353 260.23C667.176 259.503 667.703 258.499 667.835 257.409L669.496 242.463C669.564 241.836 669.5 241.201 669.307 240.6C669.114 240 668.797 239.446 668.376 238.976C667.955 238.506 667.44 238.13 666.864 237.873C666.288 237.615 665.664 237.482 665.033 237.481H640.643C640.013 237.483 639.39 237.618 638.814 237.876C638.239 238.134 637.725 238.51 637.304 238.98C636.883 239.449 636.566 240.002 636.372 240.602C636.179 241.202 636.113 241.836 636.18 242.463L637.841 257.409C637.973 258.499 638.5 259.503 639.323 260.23C640.145 260.957 641.206 261.356 642.304 261.354Z" stroke="#041E2A" stroke-width="1.8" stroke-linecap="round" stroke-linejoin="round"/>
<path d="M655.277 237.585C655.277 237.585 663.58 236.754 665.241 225.545C665.241 225.545 657.768 227.724 655.381 233.018C655.381 233.018 654.343 221.185 648.738 220.043C648.738 220.043 646.247 228.866 650.191 233.225C650.191 233.225 647.182 228.243 639.501 228.347C640.227 230.533 641.476 232.508 643.141 234.1C644.805 235.692 646.834 236.853 649.05 237.481" stroke="#041E2A"/>
<path d="M151.18 217.033C151.18 217.033 159.483 216.203 161.144 204.993C161.144 204.993 153.671 207.173 151.284 212.466C151.284 212.466 150.246 200.634 144.641 199.492C144.641 199.492 142.15 208.315 146.094 212.674C146.094 212.674 143.084 207.692 135.404 207.796C136.13 209.982 137.379 211.957 139.044 213.549C140.708 215.141 142.737 216.302 144.953 216.93" stroke="#041E2A"/>
<path d="M622.169 313.043H715.785C716.939 313.035 718.043 312.573 718.859 311.757C719.674 310.941 720.136 309.837 720.144 308.683V280.14C720.136 278.986 719.674 277.882 718.859 277.067C718.043 276.251 716.939 275.789 715.785 275.781H622.169C621.015 275.789 619.911 276.251 619.095 277.067C618.28 277.882 617.818 278.986 617.81 280.14V308.58C617.803 309.159 617.91 309.734 618.125 310.272C618.341 310.81 618.66 311.3 619.065 311.714C619.47 312.129 619.952 312.459 620.485 312.687C621.017 312.915 621.589 313.036 622.169 313.043Z" stroke="#041E2A" stroke-width="1.8" stroke-linecap="round" stroke-linejoin="round"/>
<path d="M658.183 285.953H679.771C680.181 285.942 680.57 285.775 680.86 285.485C681.15 285.195 681.317 284.805 681.328 284.396C681.317 283.986 681.15 283.596 680.86 283.306C680.57 283.017 680.181 282.849 679.771 282.839H658.183C657.774 282.849 657.384 283.017 657.094 283.306C656.804 283.596 656.637 283.986 656.626 284.396C656.637 284.805 656.804 285.195 657.094 285.485C657.384 285.775 657.774 285.942 658.183 285.953Z" stroke="#041E2A"/>
<path d="M622.169 360.581H715.785C716.939 360.572 718.043 360.111 718.859 359.295C719.674 358.479 720.136 357.375 720.144 356.221V327.782C720.136 326.628 719.674 325.524 718.859 324.708C718.043 323.892 716.939 323.431 715.785 323.422H622.169C621.015 323.431 619.911 323.892 619.095 324.708C618.28 325.524 617.818 326.628 617.81 327.782V356.221C617.818 357.375 618.28 358.479 619.095 359.295C619.911 360.111 621.015 360.572 622.169 360.581Z" stroke="#041E2A" stroke-width="1.8" stroke-linecap="round" stroke-linejoin="round"/>
<path d="M658.183 333.49H679.771C680.181 333.48 680.57 333.312 680.86 333.023C681.15 332.733 681.317 332.343 681.328 331.933C681.317 331.524 681.15 331.134 680.86 330.844C680.57 330.554 680.181 330.387 679.771 330.376H658.183C657.774 330.387 657.384 330.554 657.094 330.844C656.804 331.134 656.637 331.524 656.626 331.933C656.637 332.343 656.804 332.733 657.094 333.023C657.384 333.312 657.774 333.48 658.183 333.49Z" stroke="#041E2A"/>
<path d="M141.424 394.21H235.04C236.194 394.202 237.298 393.74 238.114 392.924C238.929 392.108 239.391 391.004 239.399 389.851V361.411C239.391 360.257 238.929 359.153 238.114 358.338C237.298 357.522 236.194 357.06 235.04 357.052H141.424C140.27 357.06 139.166 357.522 138.35 358.338C137.535 359.153 137.073 360.257 137.065 361.411V389.851C137.073 391.004 137.535 392.108 138.35 392.924C139.166 393.74 140.27 394.202 141.424 394.21Z" stroke="#041E2A" stroke-width="1.8" stroke-linecap="round" stroke-linejoin="round"/>
<path d="M177.542 367.016H199.13C199.539 367.005 199.929 366.838 200.219 366.548C200.509 366.258 200.676 365.868 200.687 365.459C200.676 365.049 200.509 364.659 200.219 364.369C199.929 364.08 199.539 363.912 199.13 363.902H177.542C177.132 363.912 176.743 364.08 176.453 364.369C176.163 364.659 175.996 365.049 175.985 365.459C175.973 365.666 176.005 365.874 176.079 366.069C176.153 366.263 176.267 366.439 176.414 366.586C176.561 366.734 176.738 366.848 176.932 366.922C177.127 366.996 177.334 367.028 177.542 367.016Z" stroke="#041E2A"/>
<path d="M261.61 394.21H355.227C356.38 394.202 357.484 393.74 358.3 392.924C359.116 392.108 359.578 391.004 359.586 389.851V361.411C359.578 360.257 359.116 359.153 358.3 358.338C357.484 357.522 356.38 357.06 355.227 357.052H261.61C260.456 357.06 259.352 357.522 258.537 358.338C257.721 359.153 257.259 360.257 257.251 361.411V389.851C257.259 391.004 257.721 392.108 258.537 392.924C259.352 393.74 260.456 394.202 261.61 394.21Z" stroke="#041E2A" stroke-width="1.8" stroke-linecap="round" stroke-linejoin="round"/>
<path d="M297.728 367.016H319.316C319.726 367.005 320.116 366.838 320.405 366.548C320.695 366.258 320.862 365.868 320.873 365.459C320.862 365.049 320.695 364.659 320.405 364.369C320.116 364.08 319.726 363.912 319.316 363.902H297.728C297.319 363.912 296.929 364.08 296.639 364.369C296.349 364.659 296.182 365.049 296.171 365.459C296.159 365.666 296.191 365.874 296.265 366.069C296.339 366.263 296.454 366.439 296.601 366.586C296.748 366.734 296.924 366.848 297.118 366.922C297.313 366.996 297.521 367.028 297.728 367.016Z" stroke="#041E2A"/>
<path d="M5.15053 241.01H477.385C478.647 240.996 479.853 240.489 480.746 239.596C481.638 238.704 482.146 237.497 482.159 236.235V153.511C482.146 152.249 481.638 151.043 480.746 150.15C479.853 149.258 478.647 148.75 477.385 148.737H5.15053C3.88851 148.75 2.68199 149.258 1.78956 150.15C0.897124 151.043 0.389792 152.249 0.376293 153.511V236.235C0.374925 236.863 0.497477 237.484 0.73692 238.064C0.976363 238.644 1.32798 239.171 1.77158 239.614C2.21518 240.058 2.74204 240.41 3.32189 240.649C3.90174 240.889 4.52318 241.011 5.15053 241.01Z" stroke="#041E2A" stroke-width="1.8" stroke-linecap="round" stroke-linejoin="round"/>
<path d="M5.15052 343.766H477.385C478.647 343.753 479.853 343.245 480.746 342.353C481.638 341.46 482.146 340.254 482.159 338.992V256.268C482.146 255.006 481.638 253.799 480.746 252.907C479.853 252.014 478.647 251.507 477.385 251.493H5.15052C3.8885 251.507 2.68198 252.014 1.78955 252.907C0.897112 253.799 0.38978 255.006 0.376282 256.268V338.992C0.38978 340.254 0.897112 341.46 1.78955 342.353C2.68198 343.245 3.8885 343.753 5.15052 343.766Z" stroke="#041E2A" stroke-width="1.8" stroke-linecap="round" stroke-linejoin="round"/>
<path d="M140.749 291.381H130.474V343.59H140.749V291.381Z" stroke="#041E2A" stroke-width="1.8" stroke-linecap="round" stroke-linejoin="round"/>
<path d="M130.433 305.611H119.743V343.6H130.433V305.611Z" stroke="#041E2A" stroke-width="1.8" stroke-linecap="round" stroke-linejoin="round"/>
<path d="M161.6 291.381H151.325V343.59H161.6V291.381Z" stroke="#041E2A" stroke-width="1.8" stroke-linecap="round" stroke-linejoin="round"/>
<path d="M171.23 290.304L161.431 293.397L177.147 343.184L186.946 340.091L171.23 290.304Z" stroke="#041E2A" stroke-width="1.8" stroke-linecap="round" stroke-linejoin="round"/>
<path d="M151.387 305.611H140.697V343.6H151.387V305.611Z" stroke="#041E2A" stroke-width="1.8" stroke-linecap="round" stroke-linejoin="round"/>
<path d="M357.821 195.652L356.68 180.187C356.657 179.945 356.687 179.701 356.766 179.471C356.846 179.241 356.973 179.031 357.14 178.854C357.307 178.677 357.509 178.538 357.734 178.446C357.959 178.353 358.201 178.31 358.444 178.318H367.37C367.61 178.319 367.848 178.369 368.068 178.465C368.288 178.561 368.487 178.7 368.652 178.875C368.817 179.049 368.945 179.256 369.028 179.481C369.111 179.707 369.147 179.947 369.134 180.187L367.992 195.652C367.992 195.652 377.333 201.672 377.23 206.654C377.126 210.495 374.842 228.866 373.805 236.962C373.672 238.052 373.145 239.055 372.323 239.782C371.5 240.509 370.439 240.909 369.342 240.906H356.472C355.374 240.909 354.314 240.509 353.491 239.782C352.669 239.055 352.141 238.052 352.009 236.962C350.971 228.866 348.688 210.495 348.584 206.654C348.48 201.672 357.821 195.652 357.821 195.652Z" stroke="#041E2A"/>
<path d="M311.947 195.652L310.805 180.187C310.783 179.945 310.813 179.701 310.892 179.471C310.971 179.241 311.099 179.031 311.266 178.854C311.433 178.677 311.635 178.538 311.86 178.446C312.085 178.353 312.327 178.31 312.57 178.318H321.496C321.736 178.319 321.973 178.369 322.194 178.465C322.414 178.561 322.613 178.7 322.778 178.875C322.943 179.049 323.071 179.256 323.154 179.481C323.236 179.707 323.273 179.947 323.26 180.187L322.118 195.652C322.118 195.652 331.459 201.672 331.355 206.654C331.252 210.495 328.968 228.866 327.93 236.962C327.798 238.052 327.271 239.055 326.448 239.782C325.626 240.509 324.565 240.909 323.468 240.906H310.598C309.5 240.909 308.44 240.509 307.617 239.782C306.794 239.055 306.267 238.052 306.135 236.962C305.097 228.866 302.814 210.495 302.71 206.654C302.606 201.672 311.947 195.652 311.947 195.652Z" stroke="#041E2A"/>
<path d="M770.17 441.748H-198.066" stroke="#041E2A" stroke-width="1.8" stroke-linecap="round" stroke-linejoin="round"/>
<path d="M341.215 343.766H254.864C253.516 343.763 252.224 343.226 251.271 342.273C250.318 341.32 249.781 340.028 249.778 338.68V325.083C249.781 323.735 250.318 322.443 251.271 321.49C252.224 320.537 253.516 320 254.864 319.997H341.215C342.563 320 343.855 320.537 344.808 321.49C345.761 322.443 346.298 323.735 346.301 325.083V338.68C346.298 340.028 345.761 341.32 344.808 342.273C343.855 343.226 342.563 343.763 341.215 343.766Z" stroke="#041E2A" stroke-width="1.8" stroke-linecap="round" stroke-linejoin="round"/>
<path d="M329.072 298.097H266.799V319.893H329.072V298.097Z" stroke="#041E2A" stroke-width="1.8" stroke-linecap="round" stroke-linejoin="round"/>
<path d="M259.534 329.442C260.394 329.442 261.091 328.745 261.091 327.886C261.091 327.026 260.394 326.329 259.534 326.329C258.675 326.329 257.978 327.026 257.978 327.886C257.978 328.745 258.675 329.442 259.534 329.442Z" stroke="#041E2A"/>
<path d="M345.989 193.991L170.588 220.562C169.662 220.705 168.716 220.655 167.811 220.413C166.905 220.171 166.06 219.744 165.328 219.159C164.596 218.573 163.994 217.842 163.56 217.012C163.125 216.181 162.868 215.27 162.804 214.335L152.322 56.3602C152.249 55.3329 152.398 54.3021 152.759 53.3374C153.119 52.3726 153.682 51.4966 154.41 50.7684C155.139 50.0402 156.015 49.4768 156.979 49.1165C157.944 48.7561 158.975 48.607 160.002 48.6794L335.714 59.8892C337.326 59.9903 338.848 60.6624 340.008 61.7847C341.168 62.907 341.891 64.4061 342.046 66.013L352.113 186.31C352.224 188.122 351.66 189.91 350.529 191.329C349.397 192.748 347.78 193.696 345.989 193.991Z" stroke="#041E2A"/>
<mask id="mask0_222_348" style="mask-type:luminance" maskUnits="userSpaceOnUse" x="82" y="86" width="701" height="382">
<path d="M696.585 467.281L156.888 451.816C144.754 451.479 133.158 446.729 124.274 438.455C115.39 430.182 109.827 418.953 108.627 406.873L82.5762 149.463C81.8826 142.573 82.6276 135.614 84.7639 129.027C86.9002 122.44 90.3813 116.368 94.9866 111.196C99.5919 106.025 105.221 101.866 111.517 98.9839C117.814 96.1017 124.64 94.5587 131.564 94.4526L732.288 86.1491C739.431 86.0525 746.513 87.4869 753.056 90.3559C759.599 93.2248 765.452 97.4617 770.221 102.782C774.989 108.101 778.564 114.381 780.703 121.198C782.843 128.015 783.498 135.211 782.625 142.302L747.648 423.48C746.127 435.832 740.048 447.171 730.602 455.274C721.156 463.377 709.024 467.659 696.585 467.281Z" fill="white"/>
</mask>
<g mask="url(#mask0_222_348)">
<path d="M138.206 240.906H159.275C160.373 240.909 161.434 240.509 162.256 239.782C163.079 239.055 163.606 238.052 163.738 236.962L165.399 222.016C165.467 221.389 165.403 220.754 165.21 220.153C165.017 219.552 164.7 218.999 164.279 218.529C163.858 218.059 163.342 217.683 162.767 217.425C162.191 217.168 161.567 217.034 160.936 217.034H136.546C135.915 217.036 135.292 217.171 134.717 217.429C134.142 217.687 133.628 218.063 133.207 218.533C132.786 219.002 132.469 219.555 132.275 220.155C132.082 220.755 132.016 221.389 132.083 222.016L133.744 236.962C133.878 238.051 134.406 239.053 135.228 239.78C136.05 240.506 137.109 240.907 138.206 240.906Z" stroke="#041E2A" stroke-width="1.8" stroke-linecap="round" stroke-linejoin="round"/>
<path d="M741.525 313.043H835.141C836.295 313.035 837.399 312.573 838.214 311.758C839.03 310.942 839.492 309.838 839.5 308.684V280.141C839.492 278.987 839.03 277.883 838.214 277.067C837.399 276.251 836.295 275.789 835.141 275.781H741.525C740.371 275.789 739.267 276.251 738.451 277.067C737.636 277.883 737.174 278.987 737.166 280.141V308.58C737.159 309.159 737.266 309.734 737.481 310.272C737.697 310.81 738.016 311.3 738.421 311.715C738.825 312.129 739.308 312.46 739.84 312.688C740.373 312.916 740.945 313.037 741.525 313.043Z" stroke="#041E2A" stroke-width="1.8" stroke-linecap="round" stroke-linejoin="round"/>
<path d="M777.539 285.953H799.127C799.536 285.942 799.926 285.775 800.216 285.485C800.506 285.195 800.673 284.805 800.684 284.396C800.673 283.986 800.506 283.596 800.216 283.306C799.926 283.017 799.536 282.849 799.127 282.839H777.539C777.129 282.849 776.74 283.017 776.45 283.306C776.16 283.596 775.993 283.986 775.982 284.396C775.993 284.805 776.16 285.195 776.45 285.485C776.74 285.775 777.129 285.942 777.539 285.953Z" fill="#B8D8C7"/>
<path d="M741.525 360.581H835.141C836.295 360.572 837.399 360.111 838.215 359.295C839.03 358.479 839.492 357.375 839.5 356.221V327.782C839.492 326.628 839.03 325.524 838.215 324.708C837.399 323.892 836.295 323.431 835.141 323.422H741.525C740.371 323.431 739.267 323.892 738.451 324.708C737.636 325.524 737.174 326.628 737.166 327.782V356.221C737.174 357.375 737.636 358.479 738.451 359.295C739.267 360.111 740.371 360.572 741.525 360.581Z" stroke="#041E2A" stroke-width="1.8" stroke-linecap="round" stroke-linejoin="round"/>
<path d="M777.539 333.491H799.127C799.536 333.48 799.926 333.313 800.216 333.023C800.506 332.733 800.673 332.343 800.684 331.934C800.673 331.524 800.506 331.134 800.216 330.845C799.926 330.555 799.536 330.387 799.127 330.377H777.539C777.129 330.387 776.74 330.555 776.45 330.845C776.16 331.134 775.993 331.524 775.982 331.934C775.993 332.343 776.16 332.733 776.45 333.023C776.74 333.313 777.129 333.48 777.539 333.491Z" fill="#B8D8C7"/>
<path d="M450.431 188.895H440.156V241.103H450.431V188.895Z" stroke="#B8D8C7" stroke-width="1.8" stroke-linecap="round" stroke-linejoin="round"/>
<path d="M440.115 203.021H429.424V241.01H440.115V203.021Z" stroke="#B8D8C7" stroke-width="1.8" stroke-linecap="round" stroke-linejoin="round"/>
</g>
<path d="M352.009 320.412L395.808 304.116C396.626 303.799 397.33 303.244 397.829 302.522C398.329 301.801 398.601 300.946 398.61 300.068L311.636 293.841L325.024 317.921L347.65 320.931C349.124 321.125 350.622 320.947 352.009 320.412Z" fill="#63737A"/>
<path d="M241.787 304.532L233.899 242.982C233.85 242.579 233.889 242.17 234.015 241.784C234.141 241.398 234.35 241.045 234.626 240.748C234.903 240.451 235.242 240.219 235.618 240.067C235.995 239.915 236.4 239.847 236.805 239.868L342.046 247.341C342.8 247.39 343.511 247.712 344.046 248.247C344.581 248.782 344.903 249.493 344.952 250.247L351.179 318.025C351.22 318.44 351.167 318.858 351.024 319.249C350.88 319.64 350.65 319.994 350.351 320.284C350.051 320.573 349.69 320.791 349.294 320.921C348.898 321.051 348.478 321.09 348.065 321.035L244.485 307.334C243.796 307.213 243.164 306.877 242.679 306.373C242.194 305.869 241.882 305.224 241.787 304.532Z" fill="#22272E"/>
<path d="M398.61 300.172C398.615 301.053 398.349 301.914 397.848 302.639C397.346 303.363 396.634 303.915 395.808 304.22L352.009 320.516C350.922 320.948 349.75 321.125 348.584 321.035C347.486 320.147 346.569 319.054 345.886 317.817L398.61 300.172Z" fill="#22272E"/>
<path d="M292.061 284.125C294.828 282.082 295.138 277.809 292.755 274.581C290.372 271.353 286.197 270.392 283.43 272.435C280.663 274.478 280.352 278.751 282.736 281.979C285.119 285.207 289.294 286.168 292.061 284.125Z" fill="#63737A"/>
<path d="M535.714 25.9485H503.954L500.737 28.0244C500.5 28.1782 500.225 28.2641 499.943 28.2727C499.66 28.2813 499.381 28.2124 499.135 28.0733C498.888 27.9342 498.685 27.7303 498.547 27.4838C498.409 27.2373 498.34 26.9576 498.35 26.6751V4.15176C498.35 3.05065 498.787 1.99463 499.566 1.21602C500.344 0.437417 501.4 0 502.501 0L535.817 0C536.918 0 537.974 0.437417 538.753 1.21602C539.531 1.99463 539.969 3.05065 539.969 4.15176V21.693C539.948 22.8149 539.492 23.885 538.699 24.6786C537.905 25.4721 536.835 25.9272 535.714 25.9485Z" fill="#05415C"/>
<path d="M518.692 10.3794H529.798" stroke="#22272E" stroke-width="1.8" stroke-linecap="round" stroke-linejoin="round"/>
<path d="M518.692 16.0879H525.439" stroke="#22272E" stroke-width="1.8" stroke-linecap="round" stroke-linejoin="round"/>
<path d="M512.984 10.3794H507.276V16.0881H512.984V10.3794Z" stroke="#22272E" stroke-width="1.8" stroke-linecap="round" stroke-linejoin="round"/>
<path d="M350.764 193.783L174.532 220.458C173.606 220.602 172.66 220.551 171.755 220.309C170.849 220.067 170.004 219.64 169.272 219.055C168.54 218.469 167.938 217.738 167.504 216.908C167.069 216.077 166.812 215.166 166.748 214.231L156.162 55.5297C156.084 54.4876 156.232 53.441 156.596 52.4613C156.96 51.4817 157.531 50.5921 158.27 49.8531C159.008 49.1142 159.898 48.5434 160.878 48.1796C161.857 47.8158 162.904 47.6676 163.946 47.7451L340.385 58.9549C342.012 59.0614 343.546 59.7489 344.708 60.892C345.87 62.0352 346.583 63.5578 346.716 65.1825L356.887 185.999C357.09 187.84 356.562 189.687 355.417 191.143C354.272 192.599 352.601 193.547 350.764 193.783Z" fill="#22272E"/>
<path d="M235.871 139.395L186.26 142.094C185.505 142.128 184.767 141.864 184.204 141.36C183.641 140.855 183.299 140.15 183.25 139.395L180.344 97.4625C180.322 97.0651 180.38 96.6673 180.516 96.293C180.651 95.9188 180.861 95.5758 181.132 95.2848C181.404 94.9939 181.732 94.7609 182.096 94.6C182.46 94.4391 182.852 94.3536 183.25 94.3486L232.861 94.66C233.6 94.6481 234.315 94.9222 234.856 95.4251C235.398 95.928 235.724 96.6208 235.767 97.3587L238.673 136.281C238.698 136.671 238.645 137.062 238.517 137.43C238.389 137.799 238.189 138.139 237.928 138.429C237.667 138.719 237.35 138.954 236.997 139.12C236.644 139.286 236.261 139.379 235.871 139.395Z" fill="#155C7B"/>
<path d="M289.218 123.204L247.703 124.657C246.947 124.691 246.209 124.427 245.646 123.923C245.083 123.418 244.741 122.712 244.693 121.958L242.928 97.774C242.906 97.3766 242.964 96.9788 243.1 96.6045C243.235 96.2303 243.445 95.8873 243.716 95.5964C243.988 95.3054 244.316 95.0725 244.68 94.9115C245.044 94.7506 245.436 94.6651 245.834 94.6602L287.349 94.9715C288.079 94.9928 288.775 95.2782 289.31 95.7746C289.844 96.2709 290.18 96.9446 290.255 97.6702L292.02 120.09C292.054 120.481 292.007 120.875 291.883 121.248C291.758 121.621 291.558 121.964 291.295 122.256C291.033 122.548 290.713 122.783 290.355 122.946C289.998 123.109 289.61 123.196 289.218 123.204Z" fill="#FFC122"/>
<path d="M336.234 121.647L301.257 122.892C300.502 122.926 299.763 122.663 299.201 122.158C298.638 121.653 298.295 120.948 298.247 120.194L296.483 98.293C296.46 97.8956 296.519 97.4978 296.654 97.1236C296.789 96.7493 296.999 96.4064 297.271 96.1154C297.542 95.8245 297.87 95.5915 298.234 95.4306C298.598 95.2697 298.991 95.1842 299.389 95.1792L334.365 95.3868C335.094 95.4081 335.791 95.6934 336.326 96.1898C336.86 96.6862 337.196 97.3598 337.271 98.0854L338.932 118.533C338.97 118.917 338.93 119.304 338.814 119.672C338.697 120.04 338.507 120.38 338.254 120.671C338.001 120.963 337.692 121.2 337.344 121.368C336.997 121.535 336.619 121.63 336.234 121.647Z" fill="#05415C"/>
<path d="M238.984 180.083L189.374 185.48C188.983 185.528 188.587 185.494 188.209 185.382C187.832 185.27 187.481 185.082 187.18 184.829C186.878 184.576 186.631 184.264 186.455 183.911C186.279 183.559 186.178 183.175 186.156 182.781L184.288 155.691C184.25 154.924 184.509 154.173 185.012 153.592C185.515 153.012 186.222 152.649 186.987 152.577L236.701 149.256C237.083 149.228 237.466 149.275 237.83 149.396C238.193 149.516 238.529 149.707 238.819 149.958C239.108 150.209 239.345 150.514 239.516 150.857C239.687 151.2 239.788 151.573 239.815 151.955L241.683 176.969C241.69 177.728 241.419 178.463 240.922 179.036C240.425 179.609 239.736 179.982 238.984 180.083Z" stroke="#63737A" stroke-width="1.8" stroke-linecap="round" stroke-linejoin="round"/>
<path d="M293.888 179.045L252.477 183.923C252.086 183.971 251.689 183.937 251.312 183.825C250.935 183.713 250.584 183.525 250.283 183.272C249.981 183.019 249.734 182.707 249.558 182.354C249.382 182.002 249.281 181.618 249.259 181.225L245.938 136.489C245.884 135.719 246.138 134.958 246.643 134.374C247.149 133.79 247.866 133.431 248.637 133.375L290.152 131.403C290.907 131.369 291.645 131.633 292.208 132.137C292.771 132.642 293.113 133.348 293.162 134.102L296.483 175.931C296.528 176.683 296.285 177.424 295.802 178.002C295.32 178.581 294.636 178.954 293.888 179.045Z" fill="#05415C"/>
<path d="M285.274 139.188L255.487 140.952C255.318 140.952 255.151 140.988 254.998 141.058C254.845 141.128 254.709 141.232 254.6 141.36C254.492 141.489 254.412 141.64 254.368 141.803C254.324 141.965 254.316 142.136 254.345 142.302L255.694 160.777C255.701 160.943 255.743 161.105 255.816 161.254C255.889 161.403 255.993 161.536 256.119 161.643C256.246 161.75 256.393 161.83 256.552 161.878C256.712 161.925 256.879 161.939 257.043 161.919L286.83 159.324C286.996 159.317 287.159 159.275 287.308 159.202C287.457 159.129 287.589 159.026 287.696 158.899C287.803 158.772 287.883 158.625 287.931 158.466C287.978 158.307 287.992 158.139 287.972 157.975L286.623 140.33C286.558 140.016 286.39 139.733 286.145 139.526C285.901 139.319 285.594 139.2 285.274 139.188Z" fill="#155C7B"/>
<path d="M340.385 168.769L305.408 172.609C305.018 172.657 304.621 172.624 304.244 172.512C303.866 172.4 303.516 172.211 303.214 171.958C302.913 171.705 302.666 171.393 302.49 171.041C302.314 170.688 302.212 170.304 302.191 169.911L299.389 133.894C299.335 133.124 299.588 132.363 300.094 131.779C300.6 131.195 301.317 130.836 302.087 130.78L337.064 129.12C337.819 129.085 338.557 129.349 339.12 129.854C339.683 130.358 340.025 131.064 340.074 131.818L342.876 165.655C342.919 166.024 342.889 166.397 342.787 166.753C342.685 167.11 342.513 167.443 342.281 167.732C342.049 168.022 341.762 168.263 341.437 168.441C341.111 168.619 340.754 168.73 340.385 168.769Z" fill="#FFC122"/>
<path d="M213.66 162.957L214.283 170.637" stroke="#63737A" stroke-width="1.8" stroke-linecap="round" stroke-linejoin="round"/>
<path d="M210.339 167.109L217.604 166.486" stroke="#63737A" stroke-width="1.8" stroke-linecap="round" stroke-linejoin="round"/>
<path d="M263.374 171.468C263.167 169.392 261.61 167.731 259.742 167.939C258.772 168.105 257.904 168.642 257.323 169.436C256.742 170.23 256.493 171.22 256.628 172.194C256.636 172.673 256.74 173.146 256.933 173.584C257.126 174.022 257.405 174.417 257.753 174.746C258.101 175.075 258.512 175.331 258.96 175.499C259.409 175.666 259.886 175.743 260.365 175.723C261.289 175.486 262.1 174.928 262.651 174.148C263.202 173.369 263.459 172.419 263.374 171.468Z" fill="#282828"/>
<path d="M269.394 170.845L288.802 168.873" stroke="#282828" stroke-width="1.8" stroke-linecap="round" stroke-linejoin="round"/>
<path d="M312.57 140.537C312.555 139.668 312.217 138.837 311.622 138.204C311.027 137.57 310.218 137.181 309.352 137.112C307.692 137.216 306.55 138.876 306.654 140.848C306.758 142.82 308.211 144.377 309.871 144.274C311.532 144.17 312.777 142.509 312.57 140.537Z" fill="#6DAFA7"/>
<path d="M317.863 140.226L334.573 139.188" stroke="#282828" stroke-width="1.8" stroke-linecap="round" stroke-linejoin="round"/>
<path d="M313.504 151.643C313.296 149.671 311.947 148.218 310.287 148.322C308.626 148.425 307.484 150.19 307.588 152.162C307.692 154.134 309.249 155.691 310.806 155.483C311.668 155.324 312.434 154.832 312.939 154.114C313.443 153.396 313.646 152.509 313.504 151.643Z" fill="#6DAFA7"/>
<path d="M318.693 151.228L335.507 149.878" stroke="#282828" stroke-width="1.8" stroke-linecap="round" stroke-linejoin="round"/>
<path d="M314.438 162.749C314.231 160.777 312.881 159.324 311.221 159.428C309.56 159.531 308.418 161.296 308.522 163.268C308.626 165.24 310.183 166.693 311.74 166.589C312.593 166.411 313.346 165.915 313.847 165.202C314.348 164.489 314.559 163.612 314.438 162.749Z" fill="#6DAFA7"/>
<path d="M319.627 162.23L336.337 160.569" stroke="#282828" stroke-width="1.8" stroke-linecap="round" stroke-linejoin="round"/>
<path d="M197.677 111.163L190.931 111.267C190.623 111.251 190.33 111.128 190.103 110.92C189.876 110.712 189.728 110.431 189.685 110.126L189.166 103.068C189.16 102.902 189.189 102.738 189.249 102.584C189.31 102.43 189.401 102.291 189.518 102.174C189.635 102.057 189.775 101.966 189.928 101.905C190.082 101.844 190.247 101.816 190.412 101.822H197.158C197.466 101.838 197.758 101.961 197.985 102.169C198.213 102.378 198.36 102.659 198.403 102.964L198.922 109.918C198.883 110.235 198.739 110.529 198.514 110.755C198.288 110.98 197.993 111.124 197.677 111.163Z" fill="#FFC122"/>
<path d="M204.942 101.822L228.294 101.718" stroke="#282828" stroke-width="1.8" stroke-linecap="round" stroke-linejoin="round"/>
<path d="M205.357 107.842L228.709 107.634" stroke="#282828" stroke-width="1.8" stroke-linecap="round" stroke-linejoin="round"/>
<path d="M309.664 109.503L304.371 109.607C304.203 109.582 304.046 109.511 303.917 109.401C303.788 109.29 303.694 109.146 303.644 108.984L303.125 102.237C303.122 102.141 303.139 102.045 303.175 101.956C303.21 101.866 303.264 101.785 303.332 101.717C303.4 101.649 303.481 101.596 303.57 101.56C303.66 101.525 303.756 101.508 303.852 101.511H309.145C309.313 101.535 309.47 101.606 309.599 101.716C309.727 101.827 309.822 101.971 309.871 102.133L310.39 108.776C310.378 108.965 310.298 109.143 310.164 109.276C310.03 109.41 309.853 109.49 309.664 109.503Z" fill="#282828"/>
<path d="M314.646 101.407H331.978" stroke="#282828" stroke-width="1.8" stroke-linecap="round" stroke-linejoin="round"/>
<path d="M315.165 106.7L332.393 106.493" stroke="#282828" stroke-width="1.8" stroke-linecap="round" stroke-linejoin="round"/>
<path d="M304.163 115.315L333.016 114.589" stroke="#282828" stroke-width="1.8" stroke-linecap="round" stroke-linejoin="round"/>
<path d="M198.818 127.251L192.072 127.459C191.759 127.46 191.457 127.343 191.226 127.132C190.996 126.92 190.853 126.629 190.827 126.317L190.308 119.259C190.298 119.102 190.32 118.944 190.373 118.795C190.425 118.647 190.507 118.51 190.614 118.394C190.72 118.277 190.849 118.184 190.993 118.119C191.137 118.053 191.292 118.018 191.45 118.014L198.196 117.806C198.504 117.822 198.796 117.945 199.023 118.154C199.251 118.362 199.398 118.643 199.441 118.948L199.96 125.902C199.981 126.231 199.873 126.555 199.661 126.806C199.448 127.058 199.146 127.217 198.818 127.251Z" fill="#FFC122"/>
<path d="M206.084 117.702L229.436 117.08" stroke="#282828" stroke-width="1.8" stroke-linecap="round" stroke-linejoin="round"/>
<path d="M206.499 123.826L229.851 123.1" stroke="#282828" stroke-width="1.8" stroke-linecap="round" stroke-linejoin="round"/>
<path d="M215.84 77.0153L180.863 75.9774C180.307 75.9635 179.776 75.7433 179.373 75.3596C178.97 74.976 178.725 74.4563 178.684 73.9015L178.269 68.4004C178.243 68.0894 178.284 67.7766 178.389 67.4825C178.493 67.1885 178.659 66.9199 178.874 66.6944C179.09 66.4689 179.351 66.2916 179.64 66.1742C179.929 66.0568 180.24 66.0019 180.552 66.0132L215.528 67.4663C216.084 67.4802 216.615 67.7004 217.018 68.084C217.421 68.4677 217.667 68.9874 217.708 69.5422L218.123 74.6281C218.14 74.9373 218.094 75.2467 217.986 75.5372C217.879 75.8277 217.713 76.093 217.499 76.3168C217.285 76.5406 217.027 76.718 216.742 76.8382C216.456 76.9584 216.149 77.0186 215.84 77.0153Z" fill="#155C7B"/>
<path d="M251.231 101.615L284.236 101.511" stroke="#282828" stroke-width="1.8" stroke-linecap="round" stroke-linejoin="round"/>
<path d="M251.646 107.427L284.651 107.012" stroke="#282828" stroke-width="1.8" stroke-linecap="round" stroke-linejoin="round"/>
<path d="M252.269 116.561L270.017 116.146" stroke="#282828" stroke-width="1.8" stroke-linecap="round" stroke-linejoin="round"/>
<path d="M335.196 76.4961C335.182 75.7707 334.915 75.0729 334.441 74.5233C333.967 73.9737 333.316 73.6069 332.601 73.4861C331.355 73.3823 330.318 74.7316 330.525 76.2885C330.507 77.0229 330.762 77.7378 331.242 78.2942C331.721 78.8506 332.391 79.2086 333.12 79.2986C334.365 79.4023 335.299 78.053 335.196 76.4961Z" fill="#63737A"/>
<path d="M325.958 76.1851C325.957 75.4561 325.694 74.7519 325.218 74.1997C324.742 73.6476 324.084 73.2841 323.364 73.175C322.015 73.0713 321.08 74.4206 321.184 76.0813C321.187 76.8265 321.464 77.5447 321.961 78.0996C322.458 78.6545 323.142 79.0074 323.883 79.0913C325.128 79.0913 326.062 77.742 325.958 76.1851Z" fill="#63737A"/>
<path d="M316.41 75.7698C316.39 75.0188 316.11 74.2981 315.618 73.7303C315.126 73.1626 314.452 72.7829 313.712 72.656C312.362 72.5522 311.324 73.9015 311.428 75.5622C311.449 76.3133 311.729 77.034 312.221 77.6017C312.713 78.1695 313.386 78.5491 314.127 78.6761C315.58 78.7799 316.514 77.4305 316.41 75.7698Z" fill="#63737A"/>
<path d="M377.333 90.0934L331.252 89.263C330.351 89.2646 329.483 88.9214 328.827 88.3038C328.171 87.6863 327.776 86.8411 327.723 85.9416L323.571 35.1863C323.546 34.7843 323.606 34.3814 323.748 34.0045C323.89 33.6275 324.111 33.2852 324.395 33.0003C324.68 32.7155 325.023 32.4947 325.399 32.3526C325.776 32.2105 326.179 32.1504 326.581 32.1763L372.871 37.0546C373.714 37.1345 374.502 37.5129 375.092 38.1218C375.682 38.7306 376.035 39.53 376.088 40.376L380.136 86.9796C380.178 87.3726 380.137 87.7701 380.015 88.1461C379.894 88.5222 379.694 88.8685 379.43 89.1622C379.165 89.456 378.842 89.6908 378.481 89.8512C378.12 90.0117 377.729 90.0942 377.333 90.0934Z" fill="#F8AB5D"/>
<path d="M379.824 89.2628L333.743 88.4325C332.842 88.434 331.974 88.0908 331.318 87.4733C330.662 86.8557 330.267 86.0106 330.214 85.111L326.062 34.3557C326.036 33.9537 326.096 33.5508 326.239 33.1739C326.381 32.7969 326.601 32.4546 326.886 32.1698C327.171 31.8849 327.513 31.6641 327.89 31.522C328.267 31.3799 328.67 31.3198 329.072 31.3457L375.361 36.224C376.205 36.3039 376.993 36.6823 377.583 37.2912C378.173 37.9001 378.526 38.6994 378.579 39.5454L382.627 86.149C382.659 86.5401 382.612 86.9337 382.486 87.3057C382.361 87.6776 382.161 88.02 381.899 88.3117C381.636 88.6035 381.317 88.8383 380.96 89.0019C380.603 89.1655 380.217 89.2543 379.824 89.2628Z" fill="#FFC122"/>
<path d="M346.197 40.791L370.587 43.0745" stroke="#63737A" stroke-width="1.8" stroke-linecap="round" stroke-linejoin="round"/>
<path d="M346.612 45.7729L371.002 47.8488" stroke="#63737A" stroke-width="1.8" stroke-linecap="round" stroke-linejoin="round"/>
<path d="M347.546 57.1904L372.04 58.8511" stroke="#63737A" stroke-width="1.8" stroke-linecap="round" stroke-linejoin="round"/>
<path d="M347.961 62.0688L372.352 63.522" stroke="#63737A" stroke-width="1.8" stroke-linecap="round" stroke-linejoin="round"/>
<path d="M348.999 73.5898L373.389 74.6278" stroke="#63737A" stroke-width="1.8" stroke-linecap="round" stroke-linejoin="round"/>
<path d="M349.414 78.4683L373.805 79.2986" stroke="#63737A" stroke-width="1.8" stroke-linecap="round" stroke-linejoin="round"/>
<path d="M337.79 43.5935L339.036 45.1505L340.8 42.7632" fill="#05415C"/>
<path d="M337.79 43.5935L339.036 45.1505L340.8 42.7632" stroke="#05415C" stroke-width="1.8" stroke-linecap="round" stroke-linejoin="round"/>
<path d="M339.14 60.2008L340.385 61.6539L342.253 59.2666" fill="#05415C"/>
<path d="M339.14 60.2008L340.385 61.6539L342.253 59.2666" stroke="#05415C" stroke-width="1.8" stroke-linecap="round" stroke-linejoin="round"/>
<path d="M340.489 76.4964L341.838 77.9495L343.602 75.4585" fill="#05415C"/>
<path d="M340.489 76.4964L341.838 77.9495L343.602 75.4585" stroke="#05415C" stroke-width="1.8" stroke-linecap="round" stroke-linejoin="round"/>
<path d="M399.233 163.06C399.233 163.06 392.798 176.45 392.279 184.961C391.76 193.472 400.789 227.62 415.527 253.673C415.527 253.673 429.435 249.106 429.435 244.85C429.435 240.595 415.008 190.254 415.527 188.801C416.046 187.348 421.755 176.657 421.755 172.09C421.755 167.524 401.412 158.078 399.233 163.06Z" fill="#F4C2C9"/>
<path d="M427.982 172.09C427.982 167.524 401.516 158.078 399.336 163.06C399.336 163.06 398.506 164.929 397.364 167.627C405.771 174.166 414.801 179.771 425.076 181.64C426.529 178.318 427.982 174.374 427.982 172.09Z" fill="#E26E85"/>
<path d="M430.913 105.53C430.913 105.53 416.461 109.71 408.574 127.563C400.686 145.416 392.279 160.362 392.279 160.362C392.279 160.362 405.252 173.232 421.858 179.771C438.464 186.518 443.16 107.19 430.913 105.53Z" fill="#072D3E"/>
<path d="M395.185 155.068C395.185 155.068 412.933 169.6 429.435 175.931" stroke="white" stroke-width="1.8" stroke-linecap="round" stroke-linejoin="round"/>
<path d="M461.505 493.333C461.505 493.333 460.571 515.13 460.779 517.206C460.986 519.282 453.514 523.745 444.277 523.434C435.039 523.122 434.209 520.424 434.209 520.424C434.209 520.424 432.133 496.862 431.926 493.541C431.718 490.22 459.637 488.87 461.505 493.333Z" fill="#F4C2C9"/>
<path d="M460.986 505.892C461.194 499.665 461.505 493.333 461.505 493.333C459.637 488.87 431.718 490.22 431.926 493.541C432.03 495.098 432.549 500.91 432.964 506.723C441.163 510.771 451.957 509.733 460.986 505.892Z" fill="#22272E"/>
<path d="M460.779 516.583C460.779 516.583 461.609 522.707 461.92 529.35C462.232 535.993 463.27 548.137 462.128 550.212C460.986 552.288 454.655 554.053 439.814 555.195C424.972 556.336 411.272 555.298 408.885 553.43C406.498 551.562 407.224 548.759 409.508 546.58C411.791 544.4 420.82 534.747 424.557 530.803C429.435 525.613 432.964 520.32 432.964 519.697C433.275 517.206 433.794 517.206 433.794 517.206C433.794 517.206 434.417 518.763 435.247 518.659C436.077 518.555 437.219 513.885 442.201 515.026C447.183 516.168 449.258 519.593 451.127 519.593C452.995 519.593 458.08 518.867 460.779 516.583Z" fill="#22272E"/>
<path d="M500.426 497.693C500.426 497.693 503.228 520.112 503.747 521.461C504.266 522.811 509.455 526.547 517.551 526.132C525.646 525.717 528.76 523.33 529.071 522.811C529.382 522.292 528.864 496.655 528.656 494.994C528.448 493.333 502.294 493.748 500.426 497.693Z" fill="#F4C2C9"/>
<path d="M528.967 506.515C528.864 500.806 528.656 495.513 528.552 494.786C528.241 493.126 502.294 493.645 500.322 497.589C500.322 497.589 500.945 502.571 501.671 507.968C510.722 510.101 520.194 509.597 528.967 506.515Z" fill="#22272E"/>
<path d="M503.332 519.489C503.107 521.105 503.038 522.739 503.124 524.368C503.228 525.717 503.332 527.585 503.332 529.869C503.436 534.643 503.851 551.147 504.992 553.534C506.134 555.921 519.211 557.893 529.071 557.997C538.931 558.101 546.196 555.506 547.338 552.807C548.479 550.109 547.857 546.165 544.432 541.805C541.007 537.446 533.119 530.699 532.185 527.482C531.415 524.735 530.408 522.061 529.175 519.489C528.463 520.488 527.495 521.277 526.373 521.773C525.023 522.188 523.051 516.583 518.796 516.376C514.541 516.168 512.673 517.829 509.974 521.773C507.549 521.894 505.17 521.076 503.332 519.489Z" fill="#22272E"/>
<path d="M416.461 226.998C414.677 235.771 413.43 244.644 412.725 253.569C411.48 268.827 415.839 363.383 416.461 370.753C417.084 378.122 419.471 420.159 422.17 440.606C424.349 457.421 422.792 491.361 427.878 496.136C432.964 500.91 444.38 503.505 454.033 500.91C463.685 498.316 468.148 493.541 469.289 489.597C470.431 485.653 465.864 455.656 466.176 440.398C466.487 425.141 466.176 380.094 465.657 369.403C465.657 369.403 469.912 314.808 474.998 302.352C480.083 289.897 487.452 244.02 473.337 230.734C459.014 217.449 417.707 224.818 416.461 226.998Z" fill="#22272E"/>
<path d="M435.039 233.018C435.039 233.018 434.936 253.569 435.766 268.93C435.916 273.6 436.437 278.251 437.323 282.839C439.917 293.633 449.673 294.464 453.929 296.955C458.184 299.446 471.365 360.581 477.592 376.461C477.592 376.461 482.367 412.997 486.103 434.793C489.839 456.59 487.141 482.954 489.943 491.984C492.745 501.014 509.144 502.779 517.136 502.052C525.127 501.325 533.742 498.212 533.43 488.87C533.119 479.529 531.562 452.957 530.213 430.33C528.864 407.703 526.269 373.97 525.646 366.082C525.646 366.082 522.532 328.716 520.872 309.514C519.211 290.312 520.145 270.695 517.654 237.585C514.956 204.371 434.936 214.542 435.039 233.018Z" fill="#22272E"/>
<path d="M435.766 268.931C435.916 273.601 438.513 278.251 439.398 282.839C441.993 293.634 447.598 294.464 451.853 296.955C456.108 299.446 471.365 360.581 477.592 376.461" stroke="#63737A" stroke-width="1.8" stroke-linecap="round" stroke-linejoin="round"/>
<path d="M451.853 296.955C451.853 296.955 439.71 290.727 434.313 293.011" stroke="#63737A" stroke-width="1.8" stroke-linecap="round" stroke-linejoin="round"/>
<path d="M435.351 385.906C442.917 385.906 449.051 379.168 449.051 370.856C449.051 362.544 442.917 355.806 435.351 355.806C427.784 355.806 421.651 362.544 421.651 370.856C421.651 379.168 427.784 385.906 435.351 385.906Z" stroke="#63737A" stroke-width="1.8" stroke-linecap="round" stroke-linejoin="round"/>
<path d="M502.813 384.972C510.608 384.972 516.928 378.234 516.928 369.922C516.928 361.61 510.608 354.872 502.813 354.872C495.017 354.872 488.698 361.61 488.698 369.922C488.698 378.234 495.017 384.972 502.813 384.972Z" stroke="#63737A" stroke-width="1.8" stroke-linecap="round" stroke-linejoin="round"/>
<path d="M437.219 508.28C437.055 507.248 437.055 506.197 437.219 505.166" stroke="#63737A" stroke-width="1.8" stroke-linecap="round" stroke-linejoin="round"/>
<path d="M445.833 509.629V505.166" stroke="#63737A" stroke-width="1.8" stroke-linecap="round" stroke-linejoin="round"/>
<path d="M456.316 507.553C456.316 507.553 456.42 504.958 456.316 503.816" stroke="#63737A" stroke-width="1.8" stroke-linecap="round" stroke-linejoin="round"/>
<path d="M506.134 508.902C506.134 508.902 505.615 506.1 505.615 505.27" stroke="#63737A" stroke-width="1.8" stroke-linecap="round" stroke-linejoin="round"/>
<path d="M516.513 509.318C516.619 507.832 516.619 506.34 516.513 504.854" stroke="#63737A" stroke-width="1.8" stroke-linecap="round" stroke-linejoin="round"/>
<path d="M525.439 507.657C525.549 506.483 525.549 505.302 525.439 504.128" stroke="#63737A" stroke-width="1.8" stroke-linecap="round" stroke-linejoin="round"/>
<path d="M427.463 529.246C427.463 529.246 435.351 522.915 450.815 531.633" stroke="white" stroke-width="1.8" stroke-linecap="round" stroke-linejoin="round"/>
<path d="M421.547 537.238C421.547 537.238 431.303 529.454 445.833 538.899" stroke="white" stroke-width="1.8" stroke-linecap="round" stroke-linejoin="round"/>
<path d="M534.572 533.813C534.572 533.813 525.127 529.661 512.361 536.408" stroke="white" stroke-width="1.8" stroke-linecap="round" stroke-linejoin="round"/>
<path d="M538.827 540.871C538.827 540.871 527.93 536.096 514.748 544.711" stroke="white" stroke-width="1.8" stroke-linecap="round" stroke-linejoin="round"/>
<path d="M477.073 102.548C477.073 102.548 482.263 104.105 493.264 104.313C504.266 104.52 516.824 107.738 521.702 113.862C526.58 119.986 519.34 165.788 518.614 186.235C517.887 206.683 512.05 236.443 512.05 236.443C512.05 236.443 477.073 240.387 448.428 239.038C419.783 237.688 415.008 231.357 413.036 229.385C411.064 227.413 409.923 222.638 411.064 220.562C412.206 218.486 417.811 202.398 419.886 186.933C421.962 171.468 417.603 149.878 419.575 130.884C421.547 111.89 428.916 106.285 428.916 106.285C428.916 106.285 436.077 103.171 452.061 102.652C460.391 102.19 468.74 102.156 477.073 102.548Z" fill="#FFC122"/>
<mask id="mask1_222_348" style="mask-type:luminance" maskUnits="userSpaceOnUse" x="408" y="102" width="120" height="138">
<path d="M477.073 102.548C477.073 102.548 482.263 104.105 493.264 104.313C504.266 104.52 516.824 107.738 521.702 113.862C526.58 119.986 528.137 165.136 527.41 185.584C526.684 206.031 512.05 236.443 512.05 236.443C512.05 236.443 477.073 240.387 448.428 239.038C419.783 237.688 412.933 231.357 410.961 229.385C408.989 227.413 407.847 222.638 408.989 220.562C410.13 218.486 415.735 202.398 417.811 186.933C419.886 171.468 415.527 149.878 417.499 130.884C419.471 111.89 426.84 106.285 426.84 106.285C426.84 106.285 436.077 103.171 452.061 102.652C460.391 102.19 468.74 102.156 477.073 102.548Z" fill="white"/>
</mask>
<g mask="url(#mask1_222_348)">
<path d="M435.973 98.397C435.973 98.397 422.585 118.948 426.84 162.23C431.095 205.512 412.414 227.828 420.924 247.757" stroke="white" stroke-width="1.8" stroke-linecap="round" stroke-linejoin="round"/>
<path d="M508.314 102.237C508.314 102.237 492.019 104.936 487.971 132.441C483.923 159.947 494.614 196.69 492.642 217.345C490.67 238 485.169 250.144 485.169 250.144" stroke="white" stroke-width="1.8" stroke-linecap="round" stroke-linejoin="round"/>
<path d="M510.078 243.501C510.078 243.501 515.579 191.708 510.078 163.061C504.577 134.413 517.032 109.503 531.043 112.928" stroke="white" stroke-width="1.8" stroke-linecap="round" stroke-linejoin="round"/>
<path d="M461.92 245.681C461.92 245.681 466.487 212.051 464.93 181.951C464.307 170.637 457.769 115.108 481.951 97.5664" stroke="white" stroke-width="1.8" stroke-linecap="round" stroke-linejoin="round"/>
<path d="M435.974 243.501C435.974 243.501 443.135 201.153 442.72 176.242C442.305 151.332 440.229 98.6044 452.787 90.0933" stroke="white" stroke-width="1.8" stroke-linecap="round" stroke-linejoin="round"/>
</g>
<path d="M475.517 157.248C479.242 157.248 482.263 154.228 482.263 150.501C482.263 146.775 479.242 143.755 475.517 143.755C471.791 143.755 468.77 146.775 468.77 150.501C468.77 154.228 471.791 157.248 475.517 157.248Z" fill="#F8AB5D" stroke="white"/>
<path d="M452.891 98.6044C450.089 98.7082 447.909 100.369 445.937 102.341C444.511 103.731 443.504 105.493 443.031 107.427C439.087 126.525 445.107 149.567 452.787 149.36C462.439 149.048 475.413 131.507 485.584 111.579C489.736 103.379 481.744 97.6702 477.073 97.6702C473.441 97.5664 458.703 98.293 452.891 98.6044Z" fill="#072D3E"/>
<path d="M497.208 58.2283C496.952 64.1103 495.278 69.8432 492.33 74.9392C487.452 83.2427 481.536 87.6021 479.564 91.3387C477.592 95.0752 478.111 85.3186 479.564 80.6479C481.017 75.9771 489.632 51.0666 497.208 58.2283Z" fill="#261F1E"/>
<path d="M450.711 89.782C450.711 89.782 449.57 99.8501 448.843 103.69C448.117 107.531 446.456 117.599 459.326 118.222C470.846 118.844 477.073 109.918 479.357 105.559C480.068 104.259 480.393 102.782 480.291 101.303C479.98 96.7362 479.357 85.5265 479.668 76.3926C480.083 64.7677 450.711 81.5823 450.711 89.782Z" fill="#F4C2C9"/>
<path d="M473.545 90.5083C467.421 95.3866 458.392 97.6701 449.881 96.4246C449.57 99.1232 449.155 102.029 448.843 103.69C448.739 104.209 448.636 104.832 448.532 105.558C459.014 106.077 470.95 100.888 473.545 90.5083Z" fill="#E26E85"/>
<path d="M438.464 52.416C438.464 52.416 435.662 56.464 436.077 59.5778C436.493 62.6916 442.408 73.1748 445.418 72.8634C448.428 72.552 451.542 59.6816 448.013 55.426C444.484 51.1705 439.606 50.4439 438.464 52.416Z" fill="#22272E"/>
<path d="M440.852 58.3324C440.979 63.5428 440.631 68.754 439.814 73.9015C438.464 82.205 437.53 94.6603 449.881 98.0855C462.232 101.511 476.762 96.84 481.329 79.8177C485.895 62.7955 489.217 45.5657 473.441 40.5836C457.665 35.6015 438.983 42.0367 440.852 58.3324Z" fill="#F4C2C9"/>
<path d="M446.145 66.6357C446.437 67.8753 446.365 69.1728 445.937 70.3723C445.729 70.9781 445.413 71.5409 445.003 72.033C444.822 72.2966 444.613 72.5402 444.38 72.7596C444.277 72.8634 444.173 73.071 444.069 73.1748C443.965 73.4775 443.965 73.8062 444.069 74.1089C444.231 74.5657 444.478 74.9881 444.795 75.3544C445.501 76.2121 446.343 76.9484 447.286 77.5341C446.007 77.6208 444.744 77.212 443.758 76.3924C443.176 75.9605 442.712 75.3895 442.408 74.7317C442.229 74.3593 442.136 73.9513 442.136 73.538C442.136 73.1248 442.229 72.7168 442.408 72.3444C442.563 71.9741 442.814 71.6517 443.135 71.4103C443.342 71.2027 443.55 71.0989 443.654 70.8913C443.998 70.5017 444.31 70.0852 444.588 69.6458C445.229 68.7106 445.752 67.6995 446.145 66.6357Z" fill="#22272E"/>
<path d="M480.706 71.4104C479.486 69.1945 478.711 66.7617 478.423 64.2487C477.8 59.4741 472.714 59.7855 470.327 50.963C467.94 42.1405 462.128 53.0389 452.891 56.9831C443.654 60.9272 436.389 54.5958 432.652 47.5378C428.916 40.4798 435.247 34.2522 439.502 31.3459C443.758 28.4397 448.22 33.1104 456.523 31.0345C464.826 28.9587 478.215 26.3638 484.65 35.7053C491.085 45.0467 497.727 47.3302 497.312 57.502C496.897 67.6739 484.961 78.9874 484.235 79.0912C483.508 79.195 480.706 71.4104 480.706 71.4104Z" fill="#261F1E"/>
<path d="M458.807 61.6535C458.495 60.8231 458.184 59.2662 459.326 58.4358C460.467 57.6055 463.062 57.9169 465.553 59.4738C467.733 60.8231 468.355 63.0028 466.902 62.7952C465.449 62.5876 464.308 61.9648 462.543 61.861C460.779 61.7573 459.118 62.38 458.807 61.6535Z" fill="#22272E"/>
<path d="M446.352 60.5118C446.527 60.0185 446.59 59.4924 446.537 58.9716C446.483 58.4509 446.313 57.9488 446.041 57.5018C445.418 56.6715 443.758 56.7752 442.201 57.917C440.851 58.9549 440.436 60.927 441.37 60.8232C442.248 60.5681 443.155 60.4286 444.069 60.408C445.211 60.5118 446.145 61.1346 446.352 60.5118Z" fill="#22272E"/>
<path d="M439.198 78.8043C439.198 78.8043 440.065 79.7479 441.829 80.0593C443.593 80.3707 442.824 78.3644 445.833 77.9492C447.702 77.7416 454.24 78.2606 456.939 80.7516C459.637 83.2427 463.374 86.1489 468.771 84.4882C474.167 82.8275 477.385 75.2506 478.423 64.2484C479.357 54.1804 483.093 63.937 483.093 66.3243C483.093 67.985 482.514 64.9053 480.646 71.652C478.453 87.1911 475.655 96.8951 460.069 99.0486C448.159 100.193 437.129 95.0557 439.198 78.8043Z" fill="#261F1E" fill-opacity="0.3"/>
<path d="M443.446 68.2964C443.845 68.3371 444.244 68.2179 444.555 67.965C444.867 67.712 445.065 67.346 445.107 66.9471L445.211 66.1168C445.251 65.7177 445.132 65.3189 444.879 65.0076C444.626 64.6963 444.26 64.4979 443.861 64.4561C443.462 64.4154 443.064 64.5346 442.752 64.7875C442.441 65.0405 442.243 65.4065 442.201 65.8054L442.097 66.6357C442.056 67.0348 442.176 67.4336 442.428 67.7449C442.681 68.0562 443.047 68.2545 443.446 68.2964Z" fill="#22272E"/>
<path d="M459.949 69.3345C460.348 69.3752 460.746 69.256 461.058 69.003C461.369 68.7501 461.567 68.3841 461.609 67.9852L461.713 67.1548C461.754 66.7558 461.634 66.3569 461.381 66.0457C461.129 65.7344 460.763 65.536 460.364 65.4941C459.965 65.4535 459.566 65.5727 459.254 65.8256C458.943 66.0785 458.745 66.4446 458.703 66.8435L458.599 67.6738C458.561 67.874 458.568 68.08 458.618 68.2774C458.668 68.4749 458.76 68.6591 458.889 68.8172C459.017 68.9753 459.178 69.1034 459.361 69.1928C459.545 69.2821 459.745 69.3305 459.949 69.3345Z" fill="#22272E"/>
<path d="M479.564 72.3442C479.564 72.3442 482.367 66.1166 487.245 66.8431C492.123 67.5697 489.736 80.7515 480.706 80.6478" fill="#F4C2C9"/>
<path d="M486.933 71.5143C486.687 71.2392 486.408 70.9952 486.103 70.7877C485.792 70.6839 485.895 70.8915 485.688 70.9953C485.688 71.0991 485.48 71.9295 485.377 72.656C485.278 73.4556 485.032 74.23 484.65 74.9395C484.47 75.3817 484.185 75.7735 483.82 76.0812C483.636 76.2367 483.412 76.3384 483.174 76.3751C482.936 76.4117 482.693 76.3818 482.47 76.2888C482.63 76.2056 482.768 76.0879 482.876 75.9442C482.984 75.8005 483.058 75.6345 483.093 75.4585C483.197 75.1471 483.197 74.8357 483.301 74.5243C483.36 73.7578 483.464 72.9953 483.612 72.2408L483.923 70.9953L484.235 70.3725C484.339 70.2688 484.339 70.165 484.546 70.0612C484.754 69.9574 484.858 69.8536 484.961 69.7498C485.252 69.6088 485.572 69.5377 485.895 69.5422C486.219 69.6266 486.508 69.8076 486.726 70.0612C486.856 70.277 486.942 70.517 486.977 70.7666C487.013 71.0163 486.998 71.2705 486.933 71.5143Z" fill="#22272E"/>
<path d="M450.711 85.0073C452.482 85.7425 454.416 85.9933 456.316 85.7339" stroke="#F4C2C9" stroke-width="1.8" stroke-linecap="round" stroke-linejoin="round"/>
<path d="M445.673 65.2946C446.169 60.1017 443.795 55.6272 440.371 55.3005C436.948 54.9738 433.77 58.9187 433.275 64.1116C432.78 69.3045 435.153 73.779 438.577 74.1056C442.001 74.4323 445.178 70.4875 445.673 65.2946Z" stroke="#22272E" stroke-width="1.8" stroke-linecap="round" stroke-linejoin="round"/>
<path d="M468.752 67.3128C469.247 62.12 466.087 57.5704 461.693 57.1512C457.299 56.732 453.336 60.6018 452.841 65.7947C452.345 70.9876 455.505 75.5371 459.899 75.9563C464.293 76.3756 468.256 72.5057 468.752 67.3128Z" stroke="#22272E" stroke-width="1.8" stroke-linecap="round" stroke-linejoin="round"/>
<path d="M445.418 66.8433C445.418 66.8433 447.183 63.5219 452.787 67.466" stroke="#22272E" stroke-width="1.8" stroke-linecap="round" stroke-linejoin="round"/>
<path d="M468.667 67.3623L480.395 69.8534" stroke="#22272E" stroke-width="1.8" stroke-linecap="round" stroke-linejoin="round"/>
<path d="M519.141 177.715L527.411 193.057C527.411 193.057 521.598 200.945 515.371 215.892C509.144 230.838 496.274 249.313 492.019 254.607C492.019 254.607 496.17 264.571 506.342 268.93C506.342 268.93 526.165 239.868 535.195 227.205C544.224 214.542 552.838 198.35 552.216 190.254C551.282 178.318 542.252 160.673 541.422 155.899C540.592 151.124 519.348 163.911 519.141 177.715Z" fill="#F4C2C9"/>
<path d="M541.318 155.899C540.592 151.228 513.814 168.147 513.607 181.951L514.437 183.508C523.877 176.521 534.493 171.283 545.781 168.043C543.601 162.646 541.629 157.975 541.318 155.899Z" fill="#E26E85"/>
<path d="M497.208 243.812C498.661 246.303 503.643 252.946 515.267 255.645C515.355 255.661 515.437 255.7 515.505 255.758C515.573 255.815 515.625 255.889 515.656 255.972C515.688 256.056 515.697 256.146 515.683 256.234C515.67 256.322 515.634 256.405 515.579 256.475L510.286 263.637C510.182 263.844 509.87 263.844 509.663 263.844C496.689 259.9 493.264 253.361 492.745 252.116C492.694 252.059 492.666 251.985 492.666 251.908C492.666 251.832 492.694 251.758 492.745 251.701L496.274 243.916C496.482 243.397 497.001 243.397 497.208 243.812Z" fill="#22272E"/>
<path d="M503.118 259.208C504.549 256.869 503.892 253.862 501.651 252.491C499.409 251.119 496.433 251.904 495.002 254.243C493.571 256.582 494.228 259.589 496.47 260.96C498.711 262.331 501.688 261.547 503.118 259.208Z" fill="white"/>
<path d="M516.617 113.032C517.83 112.821 519.077 112.941 520.228 113.379C521.379 113.818 522.39 114.558 523.155 115.523C525.542 118.533 529.486 124.345 534.364 134.31C542.564 151.02 548.272 162.023 548.272 162.023C548.272 162.023 519.834 177.384 513.607 181.951C513.607 181.951 502.086 162.542 498.35 154.446C494.717 146.765 495.755 116.872 516.617 113.032Z" fill="#072D3E"/>
<path d="M510.078 175.931C521.027 168.056 532.746 161.309 545.054 155.795" stroke="white" stroke-width="1.8" stroke-linecap="round" stroke-linejoin="round"/>
<path d="M487.971 247.756C489.878 253.525 493.132 258.756 497.464 263.016C501.796 267.276 507.081 270.442 512.88 272.252" stroke="#63737A" stroke-width="1.8" stroke-linecap="round" stroke-linejoin="round"/>
<path d="M672.921 219.005L581.069 207.692C579.64 207.52 578.337 206.791 577.443 205.664C576.549 204.537 576.137 203.102 576.295 201.672L586.051 110.541C586.246 108.825 587.003 107.223 588.205 105.984C589.407 104.745 590.985 103.938 592.693 103.69L687.763 90.8197C688.598 90.7039 689.45 90.7816 690.251 91.0468C691.052 91.312 691.781 91.7576 692.383 92.3492C692.985 92.9409 693.442 93.6629 693.721 94.4594C694 95.256 694.092 96.1059 693.99 96.9436L679.875 213.712C679.643 215.331 678.783 216.793 677.482 217.783C676.181 218.774 674.543 219.213 672.921 219.005Z" fill="#63737A"/>
<path d="M669.807 218.694L577.955 207.277C576.527 207.105 575.224 206.376 574.33 205.249C573.436 204.122 573.023 202.687 573.181 201.257L582.937 110.126C583.132 108.41 583.89 106.808 585.091 105.569C586.293 104.33 587.871 103.523 589.579 103.275L684.649 90.4047C685.485 90.2889 686.336 90.3666 687.137 90.6317C687.938 90.8969 688.668 91.3425 689.269 91.9342C689.871 92.5259 690.329 93.2478 690.607 94.0444C690.886 94.8409 690.978 95.6908 690.876 96.5285L676.761 213.297C676.541 214.929 675.689 216.409 674.388 217.418C673.088 218.428 671.442 218.886 669.807 218.694Z" fill="#22272E"/>
<path d="M666.382 133.998L594.457 137.631C594.17 137.653 593.881 137.611 593.612 137.508C593.343 137.405 593.1 137.243 592.902 137.035C592.703 136.826 592.553 136.575 592.463 136.302C592.373 136.028 592.345 135.737 592.382 135.451L594.146 119.363C594.195 118.912 594.397 118.492 594.718 118.171C595.039 117.85 595.459 117.648 595.91 117.599L668.458 110.437C668.761 110.407 669.066 110.446 669.352 110.552C669.637 110.658 669.895 110.827 670.105 111.047C670.315 111.267 670.472 111.532 670.564 111.822C670.657 112.112 670.682 112.419 670.638 112.72L668.251 132.441C668.251 133.168 667.42 133.894 666.382 133.998Z" fill="#155C7B"/>
<path d="M612.828 123.204L660.466 119.363" stroke="#22272E" stroke-width="1.8" stroke-linecap="round" stroke-linejoin="round"/>
<path d="M612.205 129.327L637.841 127.563" stroke="#22272E" stroke-width="1.8" stroke-linecap="round" stroke-linejoin="round"/>
<path d="M604.558 128.26C605.483 126.545 605.088 124.536 603.676 123.774C602.263 123.013 600.368 123.785 599.443 125.501C598.517 127.216 598.913 129.225 600.325 129.987C601.738 130.748 603.633 129.975 604.558 128.26Z" fill="#22272E"/>
<path d="M662.335 166.901L591.24 165.655C590.967 165.642 590.7 165.575 590.453 165.458C590.206 165.341 589.985 165.177 589.802 164.975C589.619 164.772 589.477 164.536 589.386 164.278C589.294 164.021 589.254 163.748 589.268 163.476L591.032 147.491C591.075 147.001 591.302 146.546 591.669 146.218C592.035 145.89 592.513 145.714 593.004 145.727L664.618 143.443C664.909 143.442 665.197 143.502 665.463 143.619C665.73 143.736 665.969 143.908 666.164 144.123C666.36 144.338 666.508 144.592 666.599 144.869C666.691 145.145 666.723 145.437 666.694 145.727L664.41 165.24C664.303 165.711 664.039 166.131 663.662 166.432C663.285 166.734 662.817 166.899 662.335 166.901Z" fill="#05415C"/>
<path d="M609.61 152.473L656.73 151.851" stroke="#22272E" stroke-width="1.8" stroke-linecap="round" stroke-linejoin="round"/>
<path d="M608.884 158.494H634.312" stroke="#22272E" stroke-width="1.8" stroke-linecap="round" stroke-linejoin="round"/>
<path d="M601.495 156.947C602.343 155.192 601.901 153.223 600.507 152.55C599.114 151.876 597.297 152.753 596.449 154.508C595.601 156.263 596.043 158.231 597.437 158.905C598.83 159.578 600.647 158.701 601.495 156.947Z" fill="#22272E"/>
<path d="M658.391 199.492L588.126 193.472C587.594 193.42 587.103 193.164 586.755 192.757C586.407 192.351 586.229 191.827 586.258 191.293L588.023 175.412C588.07 174.905 588.314 174.437 588.702 174.108C589.089 173.778 589.591 173.613 590.098 173.648L660.882 176.242C661.164 176.255 661.44 176.325 661.694 176.449C661.949 176.572 662.175 176.746 662.359 176.959C662.544 177.173 662.683 177.422 662.768 177.692C662.853 177.961 662.882 178.245 662.854 178.526L660.57 197.832C660.455 198.318 660.175 198.749 659.778 199.052C659.38 199.355 658.89 199.511 658.391 199.492Z" fill="#FFC122"/>
<path d="M606.393 181.536L652.89 184.027" stroke="#22272E" stroke-width="1.8" stroke-linecap="round" stroke-linejoin="round"/>
<path d="M605.666 187.452L630.783 189.217" stroke="#22272E" stroke-width="1.8" stroke-linecap="round" stroke-linejoin="round"/>
<path d="M599.174 184.976C599.941 183.184 599.111 181.11 597.32 180.342C595.528 179.575 593.454 180.405 592.686 182.197C591.919 183.988 592.749 186.063 594.541 186.83C596.332 187.598 598.406 186.767 599.174 184.976Z" fill="#22272E"/>
</g>
<defs>
<clipPath id="clip0_222_348">
<rect width="783" height="558" fill="white"/>
</clipPath>
</defs>
</svg>
